<?xml version="1.0" encoding="UTF-8"?>
<svg version="1.1" xmlns="http://www.w3.org/2000/svg" width="1280" height="1280">
<path d="M0 0 C2.38552637 -0.00187064 4.77105243 -0.00417234 7.156578 -0.00686532 C12.32289029 -0.01168962 17.489194 -0.01344182 22.65550804 -0.01240921 C30.33866239 -0.01087734 38.02180647 -0.01506134 45.70495882 -0.02028384 C60.2296585 -0.02993157 74.75435464 -0.03276711 89.27905715 -0.03334089 C100.50038439 -0.03380127 111.72171025 -0.03586395 122.94303703 -0.03904152 C126.17862636 -0.03993913 129.41421568 -0.04082894 132.64980501 -0.0417164 C133.45429136 -0.04193744 134.25877772 -0.04215849 135.08764245 -0.04238624 C157.70240279 -0.04853651 180.31716265 -0.0524872 202.93192387 -0.05204296 C203.78375491 -0.05202738 204.63558596 -0.0520118 205.51323006 -0.05199575 C209.83019452 -0.05191265 214.14715898 -0.05181361 218.46412344 -0.05171105 C219.32141406 -0.0516911 220.17870469 -0.05167115 221.06197382 -0.05165061 C222.79562309 -0.05161017 224.52927235 -0.05156837 226.26292162 -0.05152521 C253.22594057 -0.05091268 280.18894693 -0.05841659 307.15196228 -0.07209778 C337.47903323 -0.08747974 367.80609592 -0.09606273 398.13317102 -0.09513456 C401.37096083 -0.09505993 404.60875064 -0.09501122 407.84654045 -0.09498024 C408.64370377 -0.09496859 409.44086708 -0.09495693 410.26218686 -0.09494492 C423.05431574 -0.09491423 435.84643363 -0.10128226 448.63855925 -0.1099125 C461.50941796 -0.11841589 474.38026072 -0.11935799 487.25112069 -0.11280318 C494.21480502 -0.10944736 501.17845332 -0.10918554 508.14213371 -0.11815643 C514.52975364 -0.12605888 520.91730292 -0.124552 527.3049212 -0.1158723 C529.60296512 -0.11434553 531.90101441 -0.11612205 534.19905198 -0.12173238 C553.09682496 -0.16477478 571.92126121 0.60975712 590.48814392 4.38371277 C591.57232605 4.59987244 592.65650818 4.8160321 593.77354431 5.03874207 C652.56998064 17.1663988 705.42166727 53.08687711 738.65611267 103.01261902 C761.76427406 138.72304151 777.56564233 181.62136583 777.497365 224.55176353 C777.49971723 225.56877161 777.50206946 226.58577969 777.50449297 227.6336062 C777.51114649 231.03928204 777.51072585 234.44491941 777.51031494 237.8506012 C777.51361586 240.3181316 777.51734191 242.78566146 777.52145642 245.25319064 C777.53041059 251.3224549 777.5347 257.39170687 777.53697539 263.460976 C777.53994451 270.73370953 777.54864623 278.00643346 777.55738967 285.27916193 C777.57820928 302.85902569 777.58870114 320.4388911 777.59751927 338.01876431 C777.60173054 346.34333289 777.60695198 354.66790076 777.6122038 362.99246874 C777.63009453 391.51363582 777.64508726 420.03480311 777.65252399 448.55597496 C777.65299874 450.3457993 777.65347463 452.13562364 777.65395166 453.92544798 C777.65430622 455.2567814 777.65430622 455.2567814 777.65466795 456.61501044 C777.65586909 461.11147893 777.65708456 465.60794741 777.65830994 470.10441589 C777.65855009 470.99673988 777.65879024 471.88906387 777.65903766 472.80842798 C777.66692234 501.70916365 777.6903367 530.60985817 777.72286588 559.51057589 C777.75722949 590.09723553 777.7768813 620.68387112 777.78016824 651.27055037 C777.78058574 654.63406286 777.78106529 657.99757533 777.78159142 661.3610878 C777.78171461 662.18922231 777.7818378 663.01735683 777.78196472 663.87058633 C777.78428894 677.15116669 777.79990548 690.43169898 777.82043326 703.71226226 C777.84077524 717.08580267 777.84612928 730.45928586 777.83666263 743.83283888 C777.83147959 751.75905321 777.837172 759.68507586 777.8591973 767.61126227 C777.87446314 773.55914501 777.86835205 779.50689041 777.85452678 785.4547803 C777.85216871 787.83923218 777.85637895 790.22370311 777.86835543 792.60812609 C778.12096884 846.28761078 761.14726918 898.20589361 727.36314392 940.13371277 C726.88409607 940.72845398 726.40504822 941.32319519 725.91148376 941.93595886 C715.07644011 955.2423458 703.04505822 967.74143907 689.36314392 978.13371277 C688.80691345 978.56103699 688.25068298 978.98836121 687.67759705 979.42863464 C678.62100052 986.36120854 669.28359939 992.51342838 659.36314392 998.13371277 C658.47489929 998.64563171 658.47489929 998.64563171 657.56871033 999.16789246 C618.03454721 1021.8363152 573.68681189 1028.30105404 528.8089447 1028.26742554 C526.43238063 1028.26929619 524.05581686 1028.27159791 521.67925358 1028.27429086 C515.85840948 1028.27974684 510.03757773 1028.28059501 504.21673148 1028.27943001 C497.23668873 1028.27828812 490.25665274 1028.28294693 483.27661195 1028.28770937 C468.80643423 1028.29735709 454.33626007 1028.30019266 439.86607951 1028.30076643 C428.68623684 1028.30122683 417.50639556 1028.30328962 406.32655334 1028.30646706 C403.10277526 1028.30736467 399.87899717 1028.30825448 396.65521908 1028.30914193 C395.8536643 1028.30936298 395.05210952 1028.30958403 394.2262652 1028.30981178 C371.69366994 1028.3159621 349.16107515 1028.31991274 326.628479 1028.3194685 C325.7797389 1028.31945292 324.93099879 1028.31943734 324.05653929 1028.31942129 C319.75525589 1028.31933819 315.4539725 1028.31923915 311.1526891 1028.31913658 C310.29851555 1028.31911664 309.444342 1028.31909669 308.5642844 1028.31907614 C306.83693825 1028.3190357 305.10959209 1028.31899391 303.38224594 1028.31895075 C276.51991616 1028.31833828 249.657599 1028.32584099 222.79527283 1028.33952332 C192.57989364 1028.35490736 162.36452275 1028.36348813 132.1491394 1028.36256009 C128.92284648 1028.36248547 125.69655355 1028.36243676 122.47026062 1028.36240578 C121.67593103 1028.36239412 120.88160143 1028.36238247 120.06320125 1028.36237046 C107.31962117 1028.36233978 94.57605212 1028.3687063 81.83247531 1028.37733804 C69.008648 1028.38584405 56.18483669 1028.3867815 43.36100811 1028.38022872 C36.42352829 1028.37687425 29.48608464 1028.37660605 22.54860878 1028.38558197 C16.18375833 1028.39349022 9.81897875 1028.39197172 3.45412993 1028.38329784 C1.16548943 1028.38177232 -1.12315648 1028.38354274 -3.41179061 1028.38915791 C-22.64423069 1028.4331767 -41.92951531 1027.75752414 -60.82435608 1023.88371277 C-61.90402649 1023.6675531 -62.9836969 1023.45139343 -64.09608459 1023.22868347 C-115.80902436 1012.51799928 -165.04850675 982.8929427 -197.63685608 941.13371277 C-198.43736389 940.13855652 -199.2378717 939.14340027 -200.06263733 938.11808777 C-229.86225895 900.75206495 -248.84780052 851.63037493 -248.77107716 803.60823154 C-248.77342939 802.591758 -248.77578162 801.57528445 -248.77820513 800.52800867 C-248.78484923 797.13017277 -248.7844383 793.73237552 -248.7840271 790.33453369 C-248.7873286 787.87026504 -248.79105477 785.40599692 -248.79516858 782.94172949 C-248.80411712 776.8844146 -248.80841107 770.82711201 -248.81068754 764.76979225 C-248.81365831 757.51055505 -248.82236094 750.25132746 -248.83110182 742.99209532 C-248.85191401 725.44621444 -248.86241186 707.90033191 -248.87123143 690.35444157 C-248.87544349 682.04558256 -248.88066479 673.73672428 -248.88591596 665.42786588 C-248.90380544 636.95873579 -248.91879831 608.48960549 -248.92623615 580.02047062 C-248.9267109 578.23418439 -248.92718679 576.44789817 -248.92766381 574.66161194 C-248.92801838 573.33291718 -248.92801838 573.33291718 -248.92838011 571.9773801 C-248.92958124 567.48985883 -248.93079671 563.00233755 -248.93202209 558.51481628 C-248.93238232 557.1789969 -248.93238232 557.1789969 -248.93274982 555.81619126 C-248.94063515 526.97064041 -248.9640515 498.12513078 -248.99657804 469.27959792 C-249.03094172 438.74878776 -249.05059343 408.21800169 -249.05388039 377.68717188 C-249.05429789 374.32985364 -249.05477745 370.97253543 -249.05530357 367.61521721 C-249.05542677 366.78861235 -249.05554996 365.96200748 -249.05567688 365.11035399 C-249.05800099 351.85493403 -249.07361684 338.59956225 -249.09414542 325.34415942 C-249.11448739 311.99650579 -249.11984143 298.64890951 -249.11037479 285.30124325 C-249.10519188 277.39057615 -249.11088355 269.48010111 -249.13290946 261.56946198 C-249.14817582 255.63319456 -249.14206387 249.69706474 -249.12823894 243.76079016 C-249.12588096 241.38107876 -249.1300906 239.00134827 -249.14206759 236.62166584 C-249.39425967 183.1403902 -232.60953456 129.07787466 -197.96644592 87.72355652 C-196.62794221 86.1230541 -195.31302757 84.50526102 -194.00013733 82.88371277 C-184.09099058 70.76889969 -173.09999691 59.62784158 -160.63685608 50.13371277 C-160.06854065 49.69962097 -159.50022522 49.26552917 -158.91468811 48.81828308 C-111.8720295 13.07036543 -58.31985319 -0.04353241 0 0 Z " fill="#E31E25" transform="translate(375.63685607910156,125.86628723144531)"/>
<path d="M0 0 C8.44220121 6.98014402 12.96664755 15.33307918 14.40576172 26.18603516 C15.94737668 44.14800698 14.46660504 61.98290189 11.32421875 79.65625 C9.97896534 87.24380374 8.65157755 94.83439686 7.328125 102.42578125 C6.69874892 106.03073822 6.06905039 109.63563867 5.43917847 113.24050903 C4.99869518 115.7619989 4.55853636 118.28354546 4.11868286 120.80514526 C-0.23417396 145.7416928 -0.23417396 145.7416928 -2.35546875 156.703125 C-2.49728073 157.43885239 -2.63909271 158.17457977 -2.78520203 158.93260193 C-3.40481299 162.13559364 -4.03638538 165.33494106 -4.6887207 168.53149414 C-6.38366146 177.15276006 -7.01739602 185.66272484 -7.40234375 194.421875 C3.67540668 191.31233102 8.41287437 182.43466992 14.7421875 173.4453125 C17.88325357 168.99666835 21.1115026 164.61412173 24.34765625 160.234375 C24.94006104 159.43217529 25.53246582 158.62997559 26.14282227 157.8034668 C27.35599752 156.16124773 28.56945958 154.5192405 29.78320312 152.87744141 C32.7256031 148.89538288 35.66136065 144.90843562 38.59765625 140.921875 C39.76428959 139.33851711 40.93095629 137.7551838 42.09765625 136.171875 C42.67515625 135.388125 43.25265625 134.604375 43.84765625 133.796875 C49.09765625 126.671875 49.09765625 126.671875 50.84790039 124.29663086 C52.01386431 122.71419315 53.17971729 121.13167369 54.34545898 119.54907227 C57.27197068 115.57635613 60.20043159 111.60510506 63.1328125 107.63671875 C68.87189107 99.86587626 74.58195244 92.07698804 80.22265625 84.234375 C84.76606763 77.91765805 89.39049212 71.67007213 94.07861328 65.46020508 C97.81798451 60.49421701 101.47023838 55.47007645 105.09765625 50.421875 C135.45385716 8.23575084 135.45385716 8.23575084 152.59765625 5.421875 C163.21728295 4.31401529 174.15996763 6.54190959 182.72265625 13.234375 C188.5765145 19.2171773 190.48029753 26.00124949 190.46972656 34.27832031 C189.95492702 45.57311036 185.52936924 56.28026355 181.84829712 66.86340332 C179.19693198 74.50602715 176.77268366 82.21691654 174.35635376 89.9364624 C173.3390342 93.18528863 172.31586706 96.43226251 171.29292297 99.67932129 C170.53811666 102.07585439 169.78437629 104.47272082 169.03076172 106.86962891 C167.91820687 110.40635966 166.80060481 113.94146063 165.68052673 117.47581482 C160.54191164 133.69911821 155.60970862 149.97757224 150.78515625 166.296875 C150.37573288 167.68027069 150.37573288 167.68027069 149.95803833 169.09161377 C146.77961416 179.84301764 143.67964585 190.61189435 140.70288086 201.42089844 C139.75348335 204.86823618 138.78005343 208.30821731 137.796875 211.74609375 C137.29284133 213.53381825 136.78892976 215.32157717 136.28515625 217.109375 C136.02154297 218.01880859 135.75792969 218.92824219 135.48632812 219.86523438 C132.98949672 228.18305681 132.98949672 228.18305681 134.59765625 236.421875 C137.26149111 236.07312174 138.39220308 235.64133014 140.25268555 233.65405273 C140.82414307 232.83364502 141.39560059 232.0132373 141.984375 231.16796875 C143.03117432 229.6672583 143.03117432 229.6672583 144.09912109 228.13623047 C148.97045375 220.93151374 153.74634664 213.66359035 158.50942993 206.38705444 C161.73985075 201.45374236 164.9807378 196.52732412 168.22265625 191.6015625 C169.18127312 190.14501503 169.18127312 190.14501503 170.15925598 188.65904236 C182.71724944 169.59852408 195.64571297 150.79311036 208.73193359 132.09179688 C210.56336181 129.47095168 212.38801116 126.84551377 214.2109375 124.21875 C225.53318684 107.92835145 237.16736256 91.88804789 249.59765625 76.421875 C250.34273437 75.49375 251.0878125 74.565625 251.85546875 73.609375 C254.08285291 70.86306622 256.33726091 68.14106345 258.59765625 65.421875 C259.0472168 64.86999512 259.49677734 64.31811523 259.95996094 63.74951172 C280.91082145 38.05385579 280.91082145 38.05385579 296.62060547 36.18066406 C307.81307402 35.36620646 318.66817175 36.1935704 327.70703125 43.46875 C334.95092115 50.95210734 337.8035828 57.98634141 337.91015625 68.046875 C337.93916016 68.90539062 337.96816406 69.76390625 337.99804688 70.6484375 C338.07213041 78.4898951 336.24673013 85.64824435 334.20327759 93.15930176 C333.11967531 97.20758961 332.12954849 101.27918026 331.125 105.34765625 C330.69640956 107.06847052 330.26736984 108.78917296 329.83789062 110.50976562 C329.18352241 113.13338624 328.52950496 115.75709122 327.87670898 118.38110352 C323.7481289 134.97378544 323.7481289 134.97378544 322.03515625 141.06640625 C319.95541492 148.57225603 318.33660726 156.19308093 316.66015625 163.796875 C316.48302094 164.59821869 316.30588562 165.39956238 316.12338257 166.22518921 C310.05226939 193.73146157 305.43793432 221.4340227 301.35546875 249.30078125 C300.76750786 253.3120351 300.15019343 257.31823723 299.52734375 261.32421875 C299.15490787 263.75259803 298.7825118 266.18098341 298.41015625 268.609375 C298.230896 269.7447168 298.05163574 270.88005859 297.86694336 272.04980469 C295.67554389 283.14348705 295.67554389 283.14348705 298.59765625 293.421875 C302.23269671 293.49760501 304.48525871 293.2938198 307.38671875 291.01953125 C313.49997456 284.45103299 318.28808281 276.70886347 323.28515625 269.28515625 C326.60575713 264.37086 330.077644 259.58362045 333.64379883 254.84521484 C337.44464126 249.75568127 340.93189304 244.46850673 344.43637085 239.17214966 C346.53634351 236.00709745 348.65455455 232.85425479 350.76953125 229.69921875 C364.75122312 208.8286124 364.75122312 208.8286124 378.22900391 187.63085938 C379.69184184 185.26986087 381.16574927 182.91599551 382.640625 180.5625 C396.14526967 158.95755709 409.1357053 137.18658314 420.59765625 114.421875 C421.48517578 112.66738037 421.48517578 112.66738037 422.390625 110.87744141 C428.67269186 98.45450181 434.88681058 86.00278216 440.84765625 73.421875 C445.4839115 63.67649698 450.19054256 53.96563684 454.96618652 44.2878418 C455.79131607 42.61096822 456.61217723 40.93198623 457.42834473 39.25073242 C462.33234863 29.15910981 467.45753639 20.1075938 474.59765625 11.421875 C475.52433105 10.25386353 475.52433105 10.25386353 476.46972656 9.06225586 C481.65411332 2.59470913 488.61862419 -3.04701211 496.59765625 -5.578125 C509.19244779 -6.68751078 519.34002557 -4.41654546 529.78515625 2.546875 C534.58982166 6.90398254 537.17882341 12.34072209 538.046875 18.7265625 C538.46658481 31.72309383 533.72121052 42.88451535 527.97265625 54.359375 C526.90432511 56.53681705 525.83795685 58.71522313 524.7734375 60.89453125 C524.24186035 61.98008301 523.7102832 63.06563477 523.16259766 64.18408203 C520.74575059 69.18442927 518.44455411 74.23492688 516.16015625 79.296875 C515.7719873 80.15659912 515.38381836 81.01632324 514.98388672 81.90209961 C514.23299008 83.56789855 513.48346306 85.23431559 512.73535156 86.90136719 C511.95543222 88.62924001 511.16792515 90.35370214 510.37402344 92.07519531 C507.2861944 98.78108665 504.4480688 105.56122378 501.72265625 112.421875 C501.07139771 114.05817871 501.07139771 114.05817871 500.40698242 115.72753906 C487.63588345 147.96801439 477.06219481 180.83105365 469.27490234 214.63671875 C468.58032502 217.49314922 467.79581277 220.31310861 466.9921875 223.140625 C464.44343831 232.45339409 464.32676521 241.55599267 464.22265625 251.171875 C464.16658203 253.11320313 464.16658203 253.11320313 464.109375 255.09375 C464.02578305 264.30744018 465.04931771 273.33765861 471.44189453 280.48339844 C476.93744573 285.48389714 481.75991195 287.06657489 489.17578125 286.921875 C500.16267989 285.31648342 509.08462961 278.1790072 516.59765625 270.421875 C517.20867188 269.80828125 517.8196875 269.1946875 518.44921875 268.5625 C529.6487189 256.5959108 536.9453888 240.83368685 544.81445312 226.62939453 C547.54850124 221.71155169 550.32253813 216.81662164 553.09765625 211.921875 C559.97224388 199.77826747 566.78667894 187.60123983 573.59765625 175.421875 C580.93976364 162.2927453 588.29594214 149.17221594 595.70556641 136.08105469 C602.04049929 124.88237986 608.31779795 113.65149475 614.59765625 102.421875 C621.93303552 89.3047765 629.27255305 76.19047495 636.68798828 63.1184082 C639.59053075 57.9962484 642.46661202 52.86091446 645.3125 47.70703125 C645.93382812 46.58554687 646.55515625 45.4640625 647.1953125 44.30859375 C648.38648447 42.15639131 649.5729939 40.00159894 650.75390625 37.84375 C657.69797653 25.31815751 665.42941732 15.02098921 679.59765625 10.421875 C689.8138072 8.31689884 701.24989796 7.85784893 710.37109375 13.5234375 C714.04785595 16.30342843 715.85164676 19.22541415 717.59765625 23.421875 C720.22496856 47.51969652 704.92526886 67.31273994 693.43896484 87.2265625 C688.15868823 96.38968373 682.96498356 105.54311695 678.31640625 115.046875 C676.05780629 119.48194402 673.63933473 123.82144517 671.22265625 128.171875 C666.77440195 136.19506074 662.56078473 144.29848413 658.52294922 152.53466797 C654.11225676 161.53061854 649.58797885 170.46370806 644.95698547 179.34832764 C637.56280949 193.53870439 630.32871507 207.803735 623.18286133 222.12109375 C621.40290251 225.68640446 619.61863536 229.24953609 617.83398438 232.8125 C611.40355004 245.67005128 605.08202707 258.57161573 598.92114258 271.56054688 C596.82943723 275.96076275 594.67097344 280.32408887 592.47265625 284.671875 C589.11868155 291.32105218 585.91346807 298.03395517 582.74609375 304.77392578 C580.88287994 308.73325514 578.98781107 312.66192078 576.97265625 316.546875 C573.81729926 322.80410835 571.26007503 329.32176868 568.64697266 335.81835938 C567.49616758 338.67368403 566.33392184 341.52423303 565.171875 344.375 C560.35045882 356.2518997 555.73822769 368.15761035 551.64794922 380.30615234 C550.86774447 382.62065096 550.08289661 384.93328372 549.29345703 387.24462891 C539.28421115 416.57074662 530.06771334 445.99839235 523.0703125 476.19921875 C522.13218413 480.24483899 521.11675432 484.25286272 520.00390625 488.25390625 C518.81364953 492.54434843 517.84345572 496.79320131 517.03515625 501.171875 C516.69291016 502.98945312 516.69291016 502.98945312 516.34375 504.84375 C514.37492898 516.53577156 513.1797127 527.93190275 513.16015625 539.796875 C513.15875641 540.49487213 513.15735657 541.19286926 513.15591431 541.91201782 C513.19084508 563.48374439 517.00498825 584.48367896 522.05541992 605.40771484 C524.67026281 616.49361524 524.76451616 626.08820157 519.03515625 636.171875 C509.19490026 645.25518822 496.4531563 645.10291689 483.84716797 644.60107422 C472.81759495 643.72244316 462.97855898 636.60579021 455.5703125 628.78515625 C442.0170524 612.54808227 437.18155803 591.8615424 437.34765625 571.109375 C437.35369873 569.88605469 437.35974121 568.66273438 437.3659668 567.40234375 C437.55774643 549.54940307 439.64336397 532.01160371 442.59765625 514.421875 C442.76136719 513.43960938 442.92507813 512.45734375 443.09375 511.4453125 C444.17513426 505.56947238 445.85906359 499.88938329 447.5390625 494.16015625 C448.58911652 490.45203189 449.51095609 486.73168554 450.41015625 482.984375 C460.53795829 441.66598862 477.88206912 402.40751509 494.59765625 363.421875 C493.34855469 363.7828125 492.09945312 364.14375 490.8125 364.515625 C473.06689645 369.35925258 453.54389835 372.33384296 436.59765625 363.421875 C418.27514209 352.83439136 408.47149196 335.36840879 403.10253906 315.42724609 C398.17672169 295.86212817 398.80882638 272.95466019 404.171875 253.57421875 C404.43959717 252.60347412 404.70731934 251.63272949 404.9831543 250.63256836 C405.18593994 249.90303955 405.38872559 249.17351074 405.59765625 248.421875 C405.0871875 249.12026489 405.0871875 249.12026489 404.56640625 249.83276367 C397.64727056 259.28791902 390.66293884 268.68527782 383.53515625 277.984375 C378.62340558 284.39582965 373.79571395 290.85219767 369.09765625 297.421875 C363.74828873 304.90233197 358.2115199 312.22485392 352.61816406 319.52416992 C348.13374044 325.38398199 343.71385151 331.28599599 339.34765625 337.234375 C338.77644043 338.01151855 338.20522461 338.78866211 337.61669922 339.58935547 C335.4006379 342.60490205 333.18505574 345.62079549 330.97216797 348.63867188 C319.13130266 364.75470134 309.49162548 376.02481013 290.59765625 383.421875 C289.65535156 383.8034375 288.71304687 384.185 287.7421875 384.578125 C278.19602817 387.13957893 264.45750626 386.99784149 255.59765625 382.421875 C245.89438621 376.40902897 238.84089189 367.44311567 236.06329346 356.2729187 C235.48291714 352.71934046 235.41164984 349.22010837 235.38574219 345.62939453 C235.37810097 344.8610667 235.37045975 344.09273888 235.36258698 343.30112839 C235.34311012 340.76059437 235.33540638 338.22029264 235.33203125 335.6796875 C235.33053825 334.79813114 235.32904526 333.91657478 235.32750702 333.0083046 C235.33499392 313.52550998 236.79311307 294.26104921 238.60943604 274.87542725 C238.92905501 271.41579552 239.23035261 267.95466848 239.53151703 264.49338913 C241.16351512 245.77911229 243.12096027 227.16027143 245.75683594 208.55908203 C246.51492277 203.19105562 247.11434665 197.82125101 247.59765625 192.421875 C246.93765625 192.421875 246.27765625 192.421875 245.59765625 192.421875 C244.12599473 194.50509707 244.12599473 194.50509707 242.640625 197.23828125 C242.0331543 198.29740723 241.42568359 199.3565332 240.79980469 200.44775391 C240.47298706 201.02245422 240.14616943 201.59715454 239.80944824 202.18927002 C230.29189939 218.86908348 219.53961505 234.65475173 208.59765625 250.421875 C207.97842285 251.31680664 207.35918945 252.21173828 206.72119141 253.13378906 C203.39454819 257.93154563 200.02193163 262.69333479 196.59765625 267.421875 C196.06156738 268.16228027 195.52547852 268.90268555 194.97314453 269.66552734 C188.10097014 279.12772704 181.06782176 288.44488858 173.85253906 297.64770508 C169.02012047 303.8300405 164.34489027 310.11863155 159.71362305 316.45263672 C156.98457229 320.18470472 154.24472821 323.90435972 151.4375 327.578125 C146.28592692 334.3250558 141.40106245 341.1290087 136.84765625 348.296875 C126.24793169 364.95118315 114.62542574 379.90171869 94.59765625 384.421875 C86.54061966 385.39686214 78.1235806 384.58767701 71.3359375 379.83984375 C64.3389396 373.90338897 59.20110349 367.77438042 58.30859375 358.37890625 C57.94037995 343.29887763 60.63875387 328.16663802 63.40380859 313.38916016 C64.93512918 304.97179872 65.94368437 296.47955428 67.04443359 287.99755859 C68.11848503 279.80192397 69.31625239 271.63992579 70.66015625 263.484375 C72.12382574 254.59558797 73.39147764 245.70080029 74.51928711 236.76342773 C75.43461933 229.54191514 76.47437414 222.3453747 77.59594727 215.15307617 C78.40472328 209.91978676 79.04273009 204.68843836 79.59765625 199.421875 C74.7607881 201.506853 71.99676382 203.80589756 68.66015625 207.859375 C68.1997998 208.41794189 67.73944336 208.97650879 67.26513672 209.55200195 C60.4260277 217.95404654 54.0176818 226.6988846 47.59765625 235.421875 C47.04319824 236.17098145 46.48874023 236.92008789 45.91748047 237.69189453 C37.02470602 249.72297696 28.71095614 262.11237521 20.46972656 274.59619141 C18.78184441 277.1438633 17.08110339 279.68199248 15.37109375 282.21484375 C5.4094 296.98082753 -3.90447498 312.11403186 -12.90234375 327.484375 C-18.63894462 337.2756505 -24.71131871 346.81279529 -30.97900391 356.27148438 C-32.26721119 358.2177159 -33.54577087 360.16980464 -34.8203125 362.125 C-41.25753804 371.93180514 -47.66341358 380.76080665 -59.40234375 384.421875 C-70.0698795 385.35136646 -80.23542967 385.4924488 -88.86328125 378.3984375 C-95.66205813 371.95170085 -100.69775257 364.89428239 -101.73828125 355.3359375 C-101.84130889 346.66101021 -100.32492206 338.96935044 -98.00976562 330.66894531 C-96.89587588 326.5482696 -95.94028537 322.38957255 -94.96484375 318.234375 C-94.53807697 316.43221667 -94.11099121 314.63013386 -93.68359375 312.828125 C-93.47089844 311.92964844 -93.25820313 311.03117187 -93.0390625 310.10546875 C-92.42378438 307.51224134 -91.80452315 304.92000448 -91.18359375 302.328125 C-88.85470111 292.59915262 -86.57711707 282.85984825 -84.33984375 273.109375 C-82.4690646 264.95917251 -80.52525034 256.83864092 -78.46484375 248.734375 C-77.02708761 242.98335044 -75.72568937 237.20004746 -74.40234375 231.421875 C-72.51295207 223.17215489 -70.5542154 214.95224886 -68.46875 206.75 C-66.738196 199.82778398 -65.18091145 192.86285975 -63.59570312 185.90625 C-62.17103372 179.67284392 -60.6784302 173.46211978 -59.11450195 167.26220703 C-58.04873662 163.01156805 -57.03644684 158.74875749 -56.02734375 154.484375 C-55.59246659 152.65233932 -55.15757021 150.8203082 -54.72265625 148.98828125 C-54.50383789 148.06547363 -54.28501953 147.14266602 -54.05957031 146.19189453 C-52.80486306 140.90366701 -51.54477119 135.61671978 -50.28442383 130.32983398 C-49.20041287 125.78091274 -48.12054432 121.23106168 -47.046875 116.6796875 C-46.82386719 115.73673828 -46.60085938 114.79378906 -46.37109375 113.82226562 C-45.94659837 112.02700391 -45.52333771 110.2314496 -45.1015625 108.43554688 C-44.23446289 104.7734962 -43.34076865 101.1393788 -42.26953125 97.53125 C-41.37712074 94.33143575 -41.16629279 91.72658851 -41.40234375 88.421875 C-42.44333617 87.16869052 -42.44333617 87.16869052 -44.73046875 87.19921875 C-49.64757426 87.60897754 -52.28011394 90.81844132 -55.40234375 94.421875 C-58.73692304 99.21159521 -61.55014282 104.33649096 -64.40234375 109.421875 C-77.31389144 132.07152975 -77.31389144 132.07152975 -88.40234375 135.421875 C-98.48667286 136.50636291 -107.37844617 134.8045208 -115.40234375 128.421875 C-122.27231738 121.39576561 -122.89665962 113.86716921 -122.90429688 104.53540039 C-122.70476765 97.03718299 -120.59094621 91.0386828 -117.32177734 84.32568359 C-116.37295727 82.36102642 -115.48735785 80.37613879 -114.609375 78.37890625 C-99.24712834 43.93462365 -78.23401748 12.22492168 -42.40234375 -2.578125 C-41.59667969 -2.91972656 -40.79101562 -3.26132812 -39.9609375 -3.61328125 C-27.76759965 -8.0490979 -10.93386788 -7.18257337 0 0 Z " fill="#FEFEFE" transform="translate(355.40234375,425.578125)"/>
</svg>
