<svg width="60" height="60" viewBox="0 0 60 60" fill="none" xmlns="http://www.w3.org/2000/svg">
<g clip-path="url(#clip0_3016_25753)">
<g clip-path="url(#clip1_3016_25753)">
<mask id="mask0_3016_25753" style="mask-type:luminance" maskUnits="userSpaceOnUse" x="0" y="0" width="60" height="60">
<path d="M0 0.5H60V59.5H0V0.5Z" fill="white"/>
</mask>
<g mask="url(#mask0_3016_25753)">
<path d="M17.9002 33.2992C17.9002 33.3079 17.8967 33.3163 17.8905 33.3225C17.8844 33.3287 17.876 33.3322 17.8672 33.3322H6.04921C6.04329 33.3322 6.03748 33.3307 6.03238 33.3277C6.02728 33.3247 6.02307 33.3204 6.02021 33.3152C6.01721 33.3102 6.01562 33.3045 6.01562 33.2987C6.01562 33.2929 6.01721 33.2872 6.02021 33.2822L11.6092 24.2562C11.6119 24.2518 11.6133 24.2467 11.6134 24.2416C11.6135 24.2364 11.6121 24.2314 11.6096 24.2269C11.6071 24.2224 11.6034 24.2187 11.5989 24.2161C11.5944 24.2135 11.5894 24.2122 11.5842 24.2122H6.52421C6.51545 24.2122 6.50706 24.2087 6.50087 24.2025C6.49468 24.1963 6.49121 24.1879 6.49121 24.1792V21.1502C6.49121 21.1414 6.49468 21.133 6.50087 21.1269C6.50706 21.1207 6.51545 21.1172 6.52421 21.1172H17.4112C17.4171 21.1171 17.4229 21.1185 17.4281 21.1214C17.4332 21.1243 17.4375 21.1285 17.4405 21.1336C17.4434 21.1387 17.445 21.1445 17.4449 21.1504C17.4449 21.1564 17.4433 21.1621 17.4402 21.1672L11.8512 30.1912C11.8485 30.1956 11.8471 30.2007 11.847 30.2058C11.847 30.211 11.8483 30.216 11.8508 30.2205C11.8534 30.225 11.8571 30.2287 11.8615 30.2313C11.866 30.2339 11.8711 30.2352 11.8762 30.2352H17.8682C17.8725 30.2352 17.8768 30.236 17.8808 30.2377C17.8848 30.2394 17.8885 30.2418 17.8915 30.2449C17.8946 30.2479 17.897 30.2516 17.8987 30.2556C17.9004 30.2596 17.9012 30.2639 17.9012 30.2682L17.9002 33.2992Z" fill="#00AEEF"/>
<path d="M38.354 17.5993C38.354 17.5955 38.3533 17.5917 38.3518 17.5882C38.3503 17.5847 38.3482 17.5815 38.3455 17.5788C38.3428 17.5761 38.3396 17.574 38.3361 17.5725C38.3326 17.5711 38.3288 17.5703 38.325 17.5703H34.945C34.9373 17.5703 34.9299 17.5734 34.9245 17.5788C34.9191 17.5842 34.916 17.5916 34.916 17.5993V33.9993C34.916 34.007 34.9191 34.0144 34.9245 34.0198C34.9299 34.0253 34.9373 34.0283 34.945 34.0283H38.326C38.3337 34.0283 38.3411 34.0253 38.3465 34.0198C38.352 34.0144 38.355 34.007 38.355 33.9993L38.354 17.5993Z" fill="#00AEEF"/>
<path d="M26.1214 20.4609C24.7836 20.4609 23.4759 20.8576 22.3635 21.6009C21.2512 22.3441 20.3843 23.4005 19.8723 24.6365C19.3604 25.8724 19.2264 27.2324 19.4874 28.5445C19.7484 29.8566 20.3926 31.0618 21.3386 32.0078C22.2845 32.9538 23.4897 33.598 24.8018 33.859C26.1139 34.12 27.4739 33.986 28.7099 33.4741C29.9459 32.9621 31.0022 32.0951 31.7455 30.9828C32.4887 29.8705 32.8854 28.5627 32.8854 27.2249C32.8854 25.431 32.1728 23.7106 30.9043 22.4421C29.6358 21.1736 27.9153 20.4609 26.1214 20.4609ZM26.0004 30.9189C25.2703 30.9187 24.5566 30.7021 23.9496 30.2963C23.3426 29.8905 22.8696 29.3139 22.5903 28.6393C22.311 27.9648 22.2379 27.2225 22.3804 26.5064C22.5229 25.7903 22.8745 25.1326 23.3908 24.6163C23.9071 24.1 24.5648 23.7484 25.2809 23.6059C25.997 23.4634 26.7392 23.5365 27.4138 23.8158C28.0884 24.0951 28.665 24.5682 29.0708 25.1751C29.4766 25.7821 29.6932 26.4958 29.6934 27.2259C29.6936 27.7109 29.5981 28.1912 29.4126 28.6393C29.227 29.0875 28.955 29.4946 28.6121 29.8376C28.2691 30.1805 27.8619 30.4525 27.4138 30.6381C26.9657 30.8236 26.4854 30.9191 26.0004 30.9189Z" fill="#00AEEF"/>
<path d="M47.1507 20.4609C45.8129 20.4609 44.5052 20.8576 43.3928 21.6009C42.2805 22.3441 41.4136 23.4005 40.9016 24.6365C40.3896 25.8724 40.2557 27.2324 40.5167 28.5445C40.7777 29.8566 41.4219 31.0618 42.3679 32.0078C43.3138 32.9538 44.519 33.598 45.8311 33.859C47.1432 34.12 48.5032 33.986 49.7392 33.4741C50.9752 32.9621 52.0315 32.0951 52.7748 30.9828C53.518 29.8705 53.9147 28.5627 53.9147 27.2249C53.9147 25.431 53.2021 23.7106 51.9336 22.4421C50.6651 21.1736 48.9446 20.4609 47.1507 20.4609ZM47.0317 30.9189C46.3016 30.9187 45.5879 30.7021 44.9809 30.2963C44.3739 29.8905 43.9009 29.3139 43.6216 28.6393C43.3423 27.9648 43.2692 27.2225 43.4117 26.5064C43.5542 25.7903 43.9058 25.1326 44.4221 24.6163C44.9384 24.1 45.5961 23.7484 46.3122 23.6059C47.0283 23.4634 47.7705 23.5365 48.4451 23.8158C49.1197 24.0951 49.6963 24.5682 50.1021 25.1751C50.5078 25.7821 50.7245 26.4958 50.7247 27.2259C50.7249 27.7109 50.6294 28.1912 50.4439 28.6393C50.2583 29.0875 49.9863 29.4946 49.6434 29.8376C49.3004 30.1805 48.8932 30.4525 48.4451 30.6381C47.997 30.8236 47.5167 30.9191 47.0317 30.9189Z" fill="#00AEEF"/>
<path d="M47.2315 39.1081C47.2346 39.1053 47.2372 39.102 47.2389 39.0982C47.2407 39.0944 47.2416 39.0902 47.2416 39.0861C47.2416 39.0819 47.2407 39.0777 47.2389 39.0739C47.2372 39.0702 47.2346 39.0668 47.2315 39.0641L45.3715 37.2011C45.3663 37.197 45.36 37.1948 45.3535 37.1948C45.3469 37.1948 45.3406 37.197 45.3355 37.2011C42.7366 38.9045 39.6949 39.8075 36.5875 39.7981C33.4802 39.7887 30.4439 38.8672 27.8555 37.1481C27.8497 37.1433 27.8425 37.1406 27.835 37.1406C27.8275 37.1406 27.8202 37.1433 27.8145 37.1481L25.9535 39.0091C25.9503 39.0118 25.9477 39.0152 25.946 39.0189C25.9443 39.0227 25.9434 39.0269 25.9434 39.0311C25.9434 39.0352 25.9443 39.0394 25.946 39.0432C25.9477 39.047 25.9503 39.0503 25.9535 39.0531C29.0654 41.244 32.776 42.4248 36.5818 42.4352C40.3877 42.4455 44.1046 41.285 47.2285 39.1111L47.2315 39.1081Z" fill="#00AEEF"/>
</g>
</g>
</g>
<defs>
<clipPath id="clip0_3016_25753">
<rect width="60" height="60" fill="white"/>
</clipPath>
<clipPath id="clip1_3016_25753">
<rect width="60" height="59" fill="white" transform="translate(0 0.5)"/>
</clipPath>
</defs>
</svg>
